<svg width="25" height="25" viewBox="0 0 25 25" fill="none" xmlns="http://www.w3.org/2000/svg">
<g clip-path="url(#clip0_527_6243)">
<path d="M23.3471 12.1736C21.0068 7.84724 16.9027 5.22919 12.361 5.22919C7.81934 5.22919 3.70822 7.84724 1.38878 12.1736L1.19434 12.5L1.37489 12.8334C3.71517 17.1597 7.81934 19.7778 12.361 19.7778C16.9027 19.7778 21.0138 17.1945 23.3471 12.8334L23.5277 12.5L23.3471 12.1736ZM12.361 18.3542C8.45128 18.3542 4.861 16.1736 2.77767 12.5C4.861 8.82641 8.45128 6.64585 12.361 6.64585C16.2707 6.64585 19.8193 8.83335 21.9374 12.5C19.8193 16.1736 16.2638 18.3542 12.361 18.3542Z" fill="#C5C5C5" fill-opacity="0.7"/>
<path d="M12.5621 7.75696C11.6205 7.76383 10.7021 8.04959 9.92284 8.57813C9.14356 9.10667 8.5384 9.8543 8.18377 10.7266C7.82915 11.5989 7.74098 12.5567 7.93039 13.479C8.1198 14.4014 8.57831 15.2469 9.24799 15.9089C9.91767 16.5708 10.7685 17.0194 11.693 17.1981C12.6175 17.3767 13.5742 17.2774 14.4423 16.9127C15.3104 16.5479 16.0509 15.9341 16.5704 15.1487C17.0898 14.3633 17.3648 13.4416 17.3607 12.5C17.358 11.8732 17.2316 11.2532 16.9888 10.6753C16.746 10.0975 16.3916 9.57321 15.9458 9.13259C15.5 8.69197 14.9717 8.34366 14.391 8.1076C13.8104 7.87154 13.1889 7.75239 12.5621 7.75696ZM12.5621 15.8959C11.897 15.889 11.2488 15.6858 10.6988 15.3117C10.1488 14.9376 9.72165 14.4094 9.47091 13.7933C9.22017 13.1772 9.15706 12.5008 9.2895 11.849C9.42194 11.1972 9.74403 10.599 10.2153 10.1297C10.6866 9.66032 11.2861 9.34068 11.9384 9.2109C12.5908 9.08112 13.2669 9.14699 13.8819 9.40024C14.497 9.65349 15.0235 10.0828 15.3953 10.6343C15.7671 11.1858 15.9677 11.8349 15.9719 12.5C15.9737 12.9477 15.8867 13.3912 15.7158 13.805C15.5449 14.2187 15.2936 14.5944 14.9764 14.9103C14.6593 15.2262 14.2825 15.4759 13.8681 15.6451C13.4537 15.8143 13.0098 15.8995 12.5621 15.8959Z" fill="#C5C5C5" fill-opacity="0.7"/>
</g>
<defs>
<clipPath id="clip0_527_6243">
<rect width="25" height="25" fill="white"/>
</clipPath>
</defs>
</svg>
