<svg width="16" height="17" viewBox="0 0 16 17" fill="none" xmlns="http://www.w3.org/2000/svg">
<path d="M14.9625 6.56608H14.354V6.5322H7.55474V9.7983H11.8243C11.2014 11.6996 9.52767 13.0644 7.55474 13.0644C5.05148 13.0644 3.0219 10.8708 3.0219 8.16525C3.0219 5.45969 5.05148 3.2661 7.55474 3.2661C8.71024 3.2661 9.76149 3.73723 10.5619 4.50681L12.6988 2.19727C11.3495 0.838163 9.54466 0 7.55474 0C3.38264 0 0 3.65599 0 8.16525C0 12.6745 3.38264 16.3305 7.55474 16.3305C11.7269 16.3305 15.1095 12.6745 15.1095 8.16525C15.1095 7.61777 15.0574 7.08335 14.9625 6.56608Z" fill="#FFC107"/>
<path d="M0.871094 4.36473L3.3532 6.33215C4.02482 4.53498 5.65136 3.2661 7.55478 3.2661C8.71027 3.2661 9.76152 3.73723 10.5619 4.50681L12.6988 2.19727C11.3495 0.838163 9.5447 0 7.55478 0C4.653 0 2.13651 1.77063 0.871094 4.36473Z" fill="#FF3D00"/>
<path d="M7.55471 16.3305C9.5061 16.3305 11.2792 15.5233 12.6198 14.2108L10.2816 12.0723C9.49762 12.7167 8.53965 13.0652 7.55471 13.0644C5.58972 13.0644 3.92126 11.7102 3.2927 9.82031L0.829102 11.8718C2.07941 14.5161 4.61856 16.3305 7.55471 16.3305Z" fill="#4CAF50"/>
<path d="M14.9625 6.56608H14.354V6.5322H7.55469V9.7983H11.8243C11.5263 10.7032 10.9896 11.4939 10.2804 12.0727L10.2816 12.0719L12.6198 14.2104C12.4543 14.3729 15.1094 12.2479 15.1094 8.16525C15.1094 7.61777 15.0573 7.08335 14.9625 6.56608Z" fill="#1976D2"/>
</svg>
