<svg width="40" height="40" viewBox="0 0 40 40" fill="none" xmlns="http://www.w3.org/2000/svg">
<circle cx="19.6663" cy="19.0003" r="17.8333" stroke="#01A560"/>
<path fill-rule="evenodd" clip-rule="evenodd" d="M13.9807 23.9923C18.193 23.4406 21.0933 23.4881 25.3112 24.0116C25.6166 24.0513 25.8957 24.1888 26.097 24.3986C26.2982 24.6084 26.408 24.8764 26.4059 25.1531C26.4059 25.4179 26.3044 25.675 26.121 25.8758C25.8014 26.226 25.4739 26.5703 25.1389 26.9086H26.7641C26.8663 26.7994 26.969 26.6879 27.073 26.5748C27.438 26.1735 27.6372 25.6715 27.6367 25.1537C27.6367 24.0365 26.7272 23.0737 25.4798 22.9192C21.1623 22.3835 18.1444 22.3322 13.8029 22.901C12.5426 23.066 11.6367 24.0436 11.6367 25.1686C11.6367 25.6678 11.8183 26.1616 12.1623 26.5616C12.2638 26.6797 12.3641 26.7955 12.4638 26.9092H14.0496C13.7379 26.5746 13.4338 26.2343 13.1376 25.8885C12.9616 25.6815 12.8667 25.4283 12.8675 25.168C12.8675 24.5738 13.3438 24.0756 13.9807 23.9923ZM19.6367 18.6331C20.1216 18.6331 20.6017 18.5474 21.0497 18.3811C21.4977 18.2147 21.9047 17.9709 22.2476 17.6635C22.5904 17.3561 22.8624 16.9912 23.048 16.5896C23.2335 16.188 23.329 15.7575 23.329 15.3228C23.329 14.8881 23.2335 14.4577 23.048 14.0561C22.8624 13.6544 22.5904 13.2895 22.2476 12.9821C21.9047 12.6748 21.4977 12.4309 21.0497 12.2646C20.6017 12.0982 20.1216 12.0126 19.6367 12.0126C18.6575 12.0126 17.7183 12.3613 17.0259 12.9821C16.3334 13.6029 15.9444 14.4449 15.9444 15.3228C15.9444 16.2007 16.3334 17.0427 17.0259 17.6635C17.7183 18.2843 18.6575 18.6331 19.6367 18.6331ZM19.6367 19.7365C20.9424 19.7365 22.1946 19.2715 23.1179 18.4437C24.0411 17.616 24.5598 16.4934 24.5598 15.3228C24.5598 14.1523 24.0411 13.0296 23.1179 12.2019C22.1946 11.3742 20.9424 10.9092 19.6367 10.9092C18.331 10.9092 17.0788 11.3742 16.1556 12.2019C15.2323 13.0296 14.7136 14.1523 14.7136 15.3228C14.7136 16.4934 15.2323 17.616 16.1556 18.4437C17.0788 19.2715 18.331 19.7365 19.6367 19.7365Z" fill="#626262"/>
</svg>
