<svg width="18" height="18" viewBox="0 0 18 18" fill="none" xmlns="http://www.w3.org/2000/svg">
<path d="M9 8.83019C8.38973 8.83003 7.80066 9.02868 7.3447 9.38838C6.88874 9.74808 6.59767 10.2438 6.52677 10.7813C6.45588 11.3188 6.61011 11.8607 6.96016 12.304C7.31021 12.7473 7.83169 13.0611 8.42553 13.1858V14.7736C8.42553 14.9087 8.48606 15.0383 8.59379 15.1338C8.70152 15.2293 8.84764 15.283 9 15.283C9.15236 15.283 9.29848 15.2293 9.40621 15.1338C9.51394 15.0383 9.57447 14.9087 9.57447 14.7736V13.1858C10.1683 13.0611 10.6898 12.7473 11.0398 12.304C11.3899 11.8607 11.5441 11.3188 11.4732 10.7813C11.4023 10.2438 11.1113 9.74808 10.6553 9.38838C10.1993 9.02868 9.61027 8.83003 9 8.83019ZM9 12.2264C8.73489 12.2264 8.47573 12.1567 8.2553 12.0261C8.03487 11.8955 7.86306 11.7098 7.76161 11.4926C7.66016 11.2754 7.63361 11.0364 7.68533 10.8058C7.73705 10.5753 7.86471 10.3635 8.05218 10.1972C8.23964 10.031 8.47848 9.91776 8.7385 9.8719C8.99851 9.82603 9.26803 9.84957 9.51296 9.93954C9.75789 10.0295 9.96724 10.1819 10.1145 10.3773C10.2618 10.5728 10.3404 10.8026 10.3404 11.0377C10.3404 11.353 10.1992 11.6553 9.94782 11.8783C9.69645 12.1012 9.3555 12.2264 9 12.2264ZM16.6596 6.11321H13.0213V3.56604C13.0213 2.62027 12.5976 1.71323 11.8435 1.04447C11.0893 0.375707 10.0665 0 9 0C7.93349 0 6.91066 0.375707 6.15653 1.04447C5.40239 1.71323 4.97872 2.62027 4.97872 3.56604V6.11321H1.34043C0.984923 6.11321 0.64398 6.23844 0.392602 6.46136C0.141223 6.68428 0 6.98663 0 7.30189V16.8113C0 17.1266 0.141223 17.4289 0.392602 17.6518C0.64398 17.8748 0.984923 18 1.34043 18H16.6596C17.0151 18 17.356 17.8748 17.6074 17.6518C17.8588 17.4289 18 17.1266 18 16.8113V7.30189C18 6.98663 17.8588 6.68428 17.6074 6.46136C17.356 6.23844 17.0151 6.11321 16.6596 6.11321ZM6.12766 3.56604C6.12766 2.89049 6.43028 2.2426 6.96895 1.76492C7.50762 1.28723 8.23821 1.01887 9 1.01887C9.76179 1.01887 10.4924 1.28723 11.0311 1.76492C11.5697 2.2426 11.8723 2.89049 11.8723 3.56604V6.11321H6.12766V3.56604ZM16.8511 16.8113C16.8511 16.8564 16.8309 16.8995 16.795 16.9314C16.7591 16.9632 16.7104 16.9811 16.6596 16.9811H1.34043C1.28964 16.9811 1.24093 16.9632 1.20502 16.9314C1.16911 16.8995 1.14894 16.8564 1.14894 16.8113V7.30189C1.14894 7.25685 1.16911 7.21366 1.20502 7.18181C1.24093 7.14997 1.28964 7.13208 1.34043 7.13208H16.6596C16.7104 7.13208 16.7591 7.14997 16.795 7.18181C16.8309 7.21366 16.8511 7.25685 16.8511 7.30189V16.8113Z" fill="#01A560" fill-opacity="0.5"/>
</svg>
