<svg width="20" height="20" viewBox="0 0 20 20" fill="none" xmlns="http://www.w3.org/2000/svg">
<path fill-rule="evenodd" clip-rule="evenodd" d="M2.93 16.3539C8.19538 15.6643 11.8208 15.7236 17.0931 16.3781C17.4749 16.4277 17.8238 16.5995 18.0753 16.8618C18.3269 17.124 18.464 17.459 18.4615 17.8049C18.4615 18.1359 18.3346 18.4573 18.1054 18.7083C17.7058 19.146 17.2965 19.5764 16.8777 19.9993H18.9092C19.0369 19.8628 19.1654 19.7235 19.2954 19.5821C19.7517 19.0804 20.0006 18.4529 20 17.8056C20 16.4091 18.8631 15.2057 17.3038 15.0126C11.9069 14.343 8.13461 14.2788 2.70769 14.9898C1.13231 15.196 0 16.4181 0 17.8242C0 18.4483 0.226923 19.0655 0.656923 19.5655C0.783846 19.7131 0.909231 19.8579 1.03385 20H3.01615C2.62648 19.5817 2.2464 19.1564 1.87615 18.7242C1.65612 18.4655 1.53743 18.1489 1.53846 17.8235C1.53846 17.0808 2.13385 16.4581 2.93 16.3539ZM10 9.65484C10.6061 9.65484 11.2063 9.54781 11.7662 9.33987C12.3262 9.13193 12.835 8.82714 13.2636 8.44291C13.6921 8.05868 14.0321 7.60253 14.2641 7.10051C14.496 6.59849 14.6154 6.06043 14.6154 5.51705C14.6154 4.97367 14.496 4.43561 14.2641 3.93359C14.0321 3.43157 13.6921 2.97542 13.2636 2.59119C12.835 2.20696 12.3262 1.90218 11.7662 1.69423C11.2063 1.48629 10.6061 1.37926 10 1.37926C8.77592 1.37926 7.60198 1.81521 6.73643 2.59119C5.87088 3.36718 5.38461 4.41964 5.38461 5.51705C5.38461 6.61446 5.87088 7.66692 6.73643 8.44291C7.60198 9.2189 8.77592 9.65484 10 9.65484ZM10 11.0341C11.6321 11.0341 13.1974 10.4528 14.3514 9.4182C15.5055 8.38355 16.1538 6.98026 16.1538 5.51705C16.1538 4.05384 15.5055 2.65055 14.3514 1.61591C13.1974 0.581259 11.6321 0 10 0C8.3679 0 6.80264 0.581259 5.64857 1.61591C4.4945 2.65055 3.84615 4.05384 3.84615 5.51705C3.84615 6.98026 4.4945 8.38355 5.64857 9.4182C6.80264 10.4528 8.3679 11.0341 10 11.0341Z" fill="#C5C5C5" fill-opacity="0.7"/>
</svg>
